<svg width="15" height="13" viewBox="0 0 15 13" fill="none" xmlns="http://www.w3.org/2000/svg">
<path d="M4.4375 5.43701C4.90234 5.43701 5.28516 5.84717 5.28516 6.31201C5.28516 6.8042 4.90234 7.18701 4.4375 7.18701C3.94531 7.18701 3.5625 6.8042 3.5625 6.31201C3.5625 5.84717 3.94531 5.43701 4.4375 5.43701ZM7.5 5.43701C7.96484 5.43701 8.34766 5.84717 8.34766 6.31201C8.34766 6.74951 7.9375 7.15967 7.5 7.15967C7.03516 7.15967 6.625 6.77686 6.625 6.31201C6.625 5.81982 7.00781 5.43701 7.5 5.43701ZM10.5625 5.43701C11.0273 5.43701 11.4375 5.84717 11.4102 6.31201C11.4102 6.8042 11.0273 7.18701 10.5625 7.18701C10.0977 7.18701 9.6875 6.8042 9.6875 6.31201C9.6875 5.84717 10.0703 5.43701 10.5625 5.43701ZM7.5 0.624512C11.3555 0.624512 14.4727 3.22217 14.4727 6.33936C14.4727 9.45654 11.3555 11.9995 7.5 11.9995C6.59766 11.9995 5.72266 11.8628 4.95703 11.6167C4.13672 12.1909 2.82422 12.8745 1.15625 12.8745C0.882812 12.8745 0.636719 12.7378 0.554688 12.4644C0.472656 12.2183 0.5 11.9448 0.691406 11.7534C0.691406 11.7534 1.53906 10.8237 1.94922 9.75732C1.04688 8.80029 0.5 7.59717 0.5 6.31201C0.5 3.16748 3.61719 0.624512 7.5 0.624512ZM7.5 10.687C10.6172 10.687 13.1328 8.74561 13.1328 6.31201C13.1328 3.90576 10.5898 1.93701 7.47266 1.93701C4.35547 1.93701 1.8125 3.90576 1.8125 6.31201C1.8125 7.48779 2.38672 8.36279 2.87891 8.88232L3.45312 9.48389L3.15234 10.2495C3.01562 10.6323 2.82422 11.0151 2.60547 11.3433C3.26172 11.1245 3.80859 10.8237 4.19141 10.5503L4.71094 10.1675L5.33984 10.3589C6.02344 10.5776 6.76172 10.687 7.5 10.687Z" fill="white"/>
</svg>
