<svg width="16" height="16" viewBox="0 0 16 16" fill="none" xmlns="http://www.w3.org/2000/svg">
<path d="M10.25 12.312C9.9375 12.5933 9.46875 12.5933 9.1875 12.2808C8.96875 12.0308 8.5625 11.7495 8 11.7495C7.40625 11.7495 7 12.0308 6.78125 12.2808C6.5 12.5933 6.03125 12.5933 5.71875 12.312C5.40625 12.0308 5.40625 11.562 5.6875 11.2495C6.125 10.7808 6.90625 10.2495 8 10.2495C9.0625 10.2495 9.84375 10.7808 10.2812 11.2495C10.5625 11.562 10.5625 12.0308 10.25 12.312ZM4.5 7.49951C4.5 7.24951 4.59375 6.99951 4.78125 6.81201L3.8125 6.49951C3.5625 6.40576 3.4375 6.12451 3.5 5.84326C3.59375 5.59326 3.875 5.43701 4.15625 5.53076L7.15625 6.53076C7.40625 6.62451 7.53125 6.90576 7.46875 7.18701C7.375 7.43701 7.09375 7.56201 6.8125 7.49951L6.5 7.37451C6.5 7.40576 6.5 7.46826 6.5 7.49951C6.5 8.06201 6.0625 8.49951 5.5 8.49951C4.9375 8.49951 4.5 8.06201 4.5 7.49951ZM11.5 7.49951C11.5 8.06201 11.0625 8.49951 10.5 8.49951C9.9375 8.49951 9.5 8.06201 9.5 7.49951C9.5 7.46826 9.5 7.40576 9.5 7.37451L9.15625 7.49951C8.875 7.56201 8.59375 7.43701 8.5 7.18701C8.4375 6.90576 8.5625 6.62451 8.8125 6.53076L11.8125 5.53076C12.0938 5.43701 12.375 5.59326 12.4688 5.84326C12.5312 6.12451 12.4062 6.40576 12.1562 6.49951L11.1875 6.81201C11.375 6.96826 11.5 7.24951 11.5 7.49951ZM0 7.99951C0 3.59326 3.5625 -0.000488281 8 -0.000488281C12.4062 -0.000488281 16 3.59326 16 7.99951C16 12.437 12.4062 15.9995 8 15.9995C3.5625 15.9995 0 12.437 0 7.99951ZM8 14.4995C11.5625 14.4995 14.5 11.5933 14.5 7.99951C14.5 4.43701 11.5625 1.49951 8 1.49951C4.40625 1.49951 1.5 4.43701 1.5 7.99951C1.5 11.5933 4.40625 14.4995 8 14.4995Z" fill="#FF0412"/>
</svg>
