<svg width="14" height="15" viewBox="0 0 14 15" fill="none" xmlns="http://www.w3.org/2000/svg">
<path d="M5.44141 5.34326L6.48047 5.47998C6.5625 5.47998 6.64453 5.53467 6.67188 5.6167C6.69922 5.69873 6.67188 5.78076 6.61719 5.83545L5.85156 6.57373L6.04297 7.61279C6.07031 7.69482 6.01562 7.77686 5.96094 7.83154C5.87891 7.88623 5.79688 7.88623 5.71484 7.83154L4.78516 7.33936L3.88281 7.83154C3.80078 7.88623 3.71875 7.88623 3.63672 7.83154C3.58203 7.77686 3.52734 7.69482 3.55469 7.61279L3.74609 6.57373L2.98047 5.83545C2.92578 5.78076 2.89844 5.69873 2.92578 5.6167C2.95312 5.53467 3.03516 5.47998 3.11719 5.47998L4.15625 5.34326L4.59375 4.38623C4.64844 4.3042 4.70312 4.24951 4.78516 4.24951C4.89453 4.24951 4.94922 4.3042 5.00391 4.38623L5.44141 5.34326ZM9.81641 5.34326L10.8555 5.47998C10.9375 5.47998 11.0195 5.53467 11.0469 5.6167C11.0742 5.69873 11.0469 5.78076 10.9922 5.83545L10.2266 6.57373L10.418 7.61279C10.4453 7.69482 10.3906 7.77686 10.3359 7.83154C10.2539 7.88623 10.1719 7.88623 10.0898 7.83154L9.1875 7.33936L8.25781 7.83154C8.17578 7.88623 8.09375 7.88623 8.01172 7.83154C7.95703 7.77686 7.90234 7.69482 7.92969 7.61279L8.12109 6.57373L7.35547 5.83545C7.30078 5.78076 7.27344 5.69873 7.30078 5.6167C7.32812 5.53467 7.41016 5.47998 7.49219 5.47998L8.53125 5.34326L8.96875 4.38623C9.02344 4.3042 9.07812 4.24951 9.1875 4.24951C9.26953 4.24951 9.32422 4.3042 9.37891 4.38623L9.81641 5.34326ZM9.54297 9.19873C10.0625 9.06201 10.5273 9.52686 10.2266 9.96436C9.57031 11.0034 8.36719 11.687 6.97266 11.687C5.60547 11.687 4.40234 11.0034 3.71875 9.96436C3.44531 9.52686 3.91016 9.06201 4.42969 9.19873C5.22266 9.39014 6.07031 9.47217 6.97266 9.47217C7.90234 9.47217 8.75 9.39014 9.54297 9.19873ZM0 7.74951C0 3.89404 3.11719 0.749512 7 0.749512C10.8555 0.749512 14 3.89404 14 7.74951C14 11.6323 10.8555 14.7495 7 14.7495C3.11719 14.7495 0 11.6323 0 7.74951ZM7 13.437C10.1172 13.437 12.6875 10.894 12.6875 7.74951C12.6875 4.63232 10.1172 2.06201 7 2.06201C3.85547 2.06201 1.3125 4.63232 1.3125 7.74951C1.3125 10.894 3.85547 13.437 7 13.437Z" fill="white"/>
</svg>
