<svg width="16" height="16" viewBox="0 0 16 16" fill="none" xmlns="http://www.w3.org/2000/svg">
<path d="M10.9062 9.65576C11.5 9.49951 12.0312 10.0308 11.6875 10.5308C10.9375 11.7183 9.5625 12.4995 7.96875 12.4995C6.40625 12.4995 5.03125 11.7183 4.25 10.5308C3.9375 10.0308 4.46875 9.49951 5.0625 9.65576C5.96875 9.87451 6.9375 9.96826 7.96875 9.96826C9.03125 9.96826 10 9.87451 10.9062 9.65576ZM7.4375 5.56201L6.90625 7.59326C6.84375 7.87451 6.5625 8.03076 6.28125 7.96826L4.25 7.40576C3.6875 7.28076 3.375 6.68701 3.53125 6.15576C3.65625 5.59326 4.25 5.24951 4.78125 5.40576L5.3125 5.53076L5.4375 5.03076C5.59375 4.46826 6.15625 4.15576 6.71875 4.31201C7.28125 4.43701 7.59375 5.03076 7.4375 5.56201ZM10.6562 5.53076L11.1875 5.40576C11.7188 5.24951 12.3125 5.59326 12.4375 6.15576C12.5938 6.68701 12.2812 7.28076 11.7188 7.40576L9.6875 7.96826C9.40625 8.03076 9.125 7.87451 9.0625 7.59326L8.53125 5.56201C8.375 5.03076 8.6875 4.43701 9.25 4.31201C9.8125 4.15576 10.375 4.46826 10.5312 5.03076L10.6562 5.53076ZM16 7.99951C16 12.437 12.4062 15.9995 8 15.9995C3.5625 15.9995 0 12.437 0 7.99951C0 3.59326 3.5625 -0.000488281 8 -0.000488281C12.4062 -0.000488281 16 3.59326 16 7.99951ZM8 1.49951C4.40625 1.49951 1.5 4.43701 1.5 7.99951C1.5 11.5933 4.40625 14.4995 8 14.4995C11.5625 14.4995 14.5 11.5933 14.5 7.99951C14.5 4.43701 11.5625 1.49951 8 1.49951Z" fill="#1C9AF4"/>
</svg>
