<svg width="16" height="16" viewBox="0 0 16 16" fill="none" xmlns="http://www.w3.org/2000/svg">
<path d="M4.5 6.49951C4.5 5.96826 4.9375 5.49951 5.5 5.49951C6.0625 5.49951 6.5 5.96826 6.5 6.49951C6.5 7.06201 6.0625 7.49951 5.5 7.49951C4.9375 7.49951 4.5 7.06201 4.5 6.49951ZM11.5 6.49951C11.5 7.06201 11.0625 7.49951 10.5 7.49951C9.9375 7.49951 9.5 7.06201 9.5 6.49951C9.5 5.96826 9.9375 5.49951 10.5 5.49951C11.0625 5.49951 11.5 5.96826 11.5 6.49951ZM10.25 10.2495C10.6562 10.2495 11 10.5933 11 10.9995C11 11.437 10.6562 11.7495 10.25 11.7495H5.75C5.3125 11.7495 5 11.437 5 10.9995C5 10.5933 5.3125 10.2495 5.75 10.2495H10.25ZM16 7.99951C16 12.437 12.4062 15.9995 8 15.9995C3.5625 15.9995 0 12.437 0 7.99951C0 3.59326 3.5625 -0.000488281 8 -0.000488281C12.4062 -0.000488281 16 3.59326 16 7.99951ZM8 14.4995C11.5625 14.4995 14.5 11.5933 14.5 7.99951C14.5 4.43701 11.5625 1.49951 8 1.49951C4.40625 1.49951 1.5 4.43701 1.5 7.99951C1.5 11.5933 4.40625 14.4995 8 14.4995Z" fill="#FF6700"/>
</svg>
