<svg width="16" height="16" viewBox="0 0 16 16" fill="none" xmlns="http://www.w3.org/2000/svg">
<path d="M10.9062 9.65576C11.5 9.49951 12.0312 10.0308 11.6875 10.5308C10.9375 11.7183 9.5625 12.4995 7.96875 12.4995C6.40625 12.4995 5.03125 11.7183 4.25 10.5308C3.9375 10.0308 4.46875 9.49951 5.0625 9.65576C5.96875 9.87451 6.9375 9.96826 7.96875 9.96826C9.03125 9.96826 10 9.87451 10.9062 9.65576ZM7 5.99951C7 7.12451 6.53125 7.99951 6 7.99951C5.4375 7.99951 5 7.12451 5 5.99951C5 4.90576 5.4375 3.99951 6 3.99951C6.53125 3.99951 7 4.90576 7 5.99951ZM9 5.99951C9 4.90576 9.4375 3.99951 10 3.99951C10.5312 3.99951 11 4.90576 11 5.99951C11 7.12451 10.5312 7.99951 10 7.99951C9.4375 7.99951 9 7.12451 9 5.99951ZM16 7.99951C16 12.437 12.4062 15.9995 8 15.9995C3.5625 15.9995 0 12.437 0 7.99951C0 3.59326 3.5625 -0.000488281 8 -0.000488281C12.4062 -0.000488281 16 3.59326 16 7.99951ZM8 1.49951C4.40625 1.49951 1.5 4.43701 1.5 7.99951C1.5 11.5933 4.40625 14.4995 8 14.4995C11.5625 14.4995 14.5 11.5933 14.5 7.99951C14.5 4.43701 11.5625 1.49951 8 1.49951Z" fill="#FFB416"/>
</svg>
