<svg width="16" height="16" viewBox="0 0 16 16" fill="none" xmlns="http://www.w3.org/2000/svg">
<path d="M7.67322 1.125C7.72108 1.12503 7.76781 1.13904 7.80798 1.16504C7.82805 1.17806 7.84629 1.19393 7.86169 1.21191L7.89978 1.27246L7.90076 1.27441L9.75134 5.37012L9.87244 5.63867L10.1674 5.66211L14.4427 6.00195C14.467 6.00391 14.4906 6.00985 14.5131 6.01855L14.5765 6.05469C14.5958 6.06971 14.6133 6.08675 14.6273 6.10645L14.6595 6.17188C14.6834 6.24331 14.6747 6.31976 14.6371 6.38184L14.5902 6.4375L11.1888 9.49902L10.9564 9.70801L11.0424 10.0088L12.4135 14.8057V14.8066C12.4204 14.8311 12.4239 14.8567 12.4232 14.8818L12.4095 14.957C12.4011 14.9814 12.3886 15.004 12.3734 15.0244L12.3197 15.0781C12.2785 15.108 12.229 15.1248 12.1781 15.126L12.1029 15.1162C12.0784 15.1092 12.055 15.0982 12.0336 15.084H12.0345L7.95056 12.3623L7.67322 12.1768L7.39587 12.3623L3.31189 15.084V15.085C3.27023 15.1128 3.22041 15.1273 3.17029 15.127L3.09705 15.1152C3.0736 15.1078 3.05112 15.0971 3.03064 15.083C3.01005 15.0688 2.99129 15.0517 2.97595 15.0322L2.93982 14.9668C2.93082 14.9435 2.92495 14.9192 2.92322 14.8945L2.92908 14.8203L4.04626 9.98145L4.10974 9.70703L3.90857 9.51074L0.748413 6.43066C0.731282 6.41396 0.717065 6.39466 0.705444 6.37402L0.679077 6.30762C0.673708 6.28424 0.671791 6.26003 0.673218 6.23633L0.687866 6.16602C0.696045 6.14347 0.707983 6.12265 0.722046 6.10352L0.771851 6.05273C0.791065 6.03809 0.811998 6.02607 0.834351 6.01758L0.903687 6.00195L5.17908 5.66211L5.474 5.63867L5.59509 5.37012L7.44568 1.27344L7.44666 1.27148C7.46628 1.22792 7.49834 1.19101 7.53845 1.16504C7.5586 1.15203 7.58013 1.14146 7.60291 1.13477L7.67322 1.125Z" stroke="#FFBB00"/>
</svg>
